<svg xmlns="http://www.w3.org/2000/svg" viewBox="0 0 760 360" role="img" aria-labelledby="title desc">
  <title id="title">Food blog wordmark</title>
  <desc id="desc">Kitchen wordmark with whisk, herb, and fire inspired by the supplied logo.</desc>
  <rect width="760" height="360" fill="none"/>
  <g transform="translate(286 24) scale(.48)">
    <path d="M120 382c42-94 39-175-10-244 70 29 112 78 125 147" fill="none" stroke="#4f5525" stroke-width="28" stroke-linecap="round"/>
    <path d="M99 130c36 7 60 30 70 68-41-1-65-24-70-68Zm78-54c30 27 39 62 23 104-35-25-43-60-23-104Zm79 66c-5 39-30 63-76 72 3-43 29-67 76-72Zm-161 98c47-8 84 5 111 40-52 11-89-2-111-40Z" fill="#4f5525"/>
    <path d="M215 316 362 164c46-46 101-45 129-18-74 43-137 100-196 174l-47 47-33-51Z" fill="#4f5525"/>
    <path d="M276 288c55-73 118-127 190-163" fill="none" stroke="#fbf7ef" stroke-width="10" stroke-linecap="round"/>
    <path d="M298 308c43-57 94-101 154-132" fill="none" stroke="#fbf7ef" stroke-width="8" stroke-linecap="round"/>
    <path d="M188 334 88 434a34 34 0 0 0 48 48l100-100-48-48Z" fill="#c8743f"/>
    <circle cx="114" cy="456" r="12" fill="#fbf7ef"/>
    <path d="M390 330c-42-32-26-69-5-94-2 35 31 32 20-18 46 41 53 89 15 124 12-35-28-41-30-12Z" fill="#c8743f"/>
    <path d="M92 64a218 218 0 0 1 364 188" fill="none" stroke="#eadcc3" stroke-width="18" stroke-linecap="round"/>
    <path d="M430 398a218 218 0 0 1-304 10" fill="none" stroke="#eadcc3" stroke-width="18" stroke-linecap="round"/>
  </g>
  <text x="380" y="258" text-anchor="middle" font-family="Arial, Helvetica, sans-serif" font-size="86" font-weight="800" fill="#c8743f" letter-spacing="6">KEPOLI</text>
  <text x="380" y="322" text-anchor="middle" font-family="Arial, Helvetica, sans-serif" font-size="48" font-weight="800" fill="#c8743f">.com</text>
</svg>
